<svg xmlns="http://www.w3.org/2000/svg" width="500" height="500" style="width:100%;height:100%"><defs><clipPath id="a"><path d="M0 0h500v500H0z"/></clipPath><clipPath id="c"><path d="M0 0h409v9725H0z"/></clipPath><clipPath id="e"><path d="M0 0h409v9725H0z"/></clipPath><mask id="d"><path fill="#121331" d="M45.625-33.375v66.75h-91.25v-66.75h91.25z" transform="matrix(3.5 0 0 3.5 248.687 292.438)" display="block"/></mask><mask id="b"><g display="block"><path fill="#121432" d="M45.625-33.375v66.75h-91.25v-66.75h91.25z" transform="matrix(3.5 0 0 3.5 248.687 292.438)"/><path fill-opacity="0" stroke="#121331" stroke-width="0" d="M408.375 175.625V409.25H89V175.625h319.375z"/></g></mask></defs><g clip-path="url(#a)"><g mask="url(#b)" display="block"><g clip-path="url(#c)" transform="matrix(1 0 0 1 45.25 -9259.825)"><path stroke-linecap="round" stroke-linejoin="round" stroke="#911051" stroke-width="12.6" d="M261.433 6822.97h6.973c25.522 0 46.211-20.69 46.211-46.211v-72.756c0-25.522-20.689-46.213-46.211-46.213h-6.973c-25.522 0-46.212 20.691-46.212 46.213v72.756c0 25.522 20.69 46.21 46.212 46.21zM266.971 3704.59h6.973c25.522 0 46.211-20.69 46.211-46.211v-72.756c0-25.522-20.689-46.213-46.211-46.213h-6.973c-25.522 0-46.212 20.691-46.212 46.213v72.756c0 25.522 20.69 46.21 46.212 46.21zM266.971 593.759h6.973c25.522 0 46.211-20.69 46.211-46.211v-72.756c0-25.522-20.689-46.213-46.211-46.213h-6.973c-25.522 0-46.212 20.691-46.212 46.213v72.756c0 25.522 20.69 46.21 46.212 46.21z" fill="none" display="block"/><g display="block"><path stroke-linecap="round" stroke-linejoin="round" stroke="#911051" stroke-width="12.6" d="M317.259 789.662l-.333 23.894c-.623 44.588-32.143 82.756-75.81 91.797 0 0 0 0 0 0" fill="none"/><path stroke-linecap="round" stroke-linejoin="round" stroke="#911051" stroke-width="12.6" d="M317.269 788.67c0-26.876-20.958-48.663-46.812-48.663s-46.813 21.786-46.813 48.663c0 26.877 20.959 48.664 46.813 48.664 25.854 0 46.812-21.788 46.812-48.664z" fill="none"/></g><g display="block"><path stroke-linecap="round" stroke-linejoin="round" stroke="#911051" stroke-width="12.6" d="M236.148 7017.31l-.333 23.893c-.623 44.588-32.143 82.756-75.81 91.797 0 0 0 0 0 0" fill="none"/><path stroke-linecap="round" stroke-linejoin="round" stroke="#911051" stroke-width="12.6" d="M236.158 7016.317c0-26.876-20.958-48.663-46.812-48.663s-46.813 21.786-46.813 48.663c0 26.877 20.959 48.664 46.813 48.664 25.854 0 46.812-21.788 46.812-48.664z" fill="none"/></g><g display="block"><path stroke-linecap="round" stroke-linejoin="round" stroke="#911051" stroke-width="12.6" d="M311.72 3911.568l-.332 23.894c-.623 44.588-32.143 82.756-75.81 91.797 0 0 0 0 0 0" fill="none"/><path stroke-linecap="round" stroke-linejoin="round" stroke="#911051" stroke-width="12.6" d="M311.731 3910.576c0-26.876-20.958-48.663-46.812-48.663s-46.813 21.786-46.813 48.663c0 26.877 20.959 48.664 46.813 48.664 25.854 0 46.812-21.788 46.812-48.664z" fill="none"/></g><g display="block"><path stroke-linecap="round" stroke-linejoin="round" stroke="#911051" stroke-width="12.6" d="M228.474 7325.913c0 21.61-17.518 39.129-39.128 39.129s-39.13-17.52-39.13-39.129c0-21.61 17.52-39.129 39.13-39.129 21.61 0 39.128 17.518 39.128 39.13z" fill="none"/><path stroke-linecap="round" stroke-linejoin="round" stroke="#911051" stroke-width="12.6" d="M211.377 7358.23c16.253 8.084 27.41 24.879 27.41 44.291 0 27.326-22.115 49.443-49.441 49.443-27.326 0-49.443-22.117-49.443-49.443 0-19.412 11.158-36.207 27.411-44.291" fill="none"/></g><g display="block"><path stroke-linecap="round" stroke-linejoin="round" stroke="#911051" stroke-width="12.6" d="M304.047 4519.388c0 21.611-17.518 39.13-39.128 39.13s-39.13-17.52-39.13-39.13c0-21.61 17.52-39.129 39.13-39.129 21.61 0 39.128 17.518 39.128 39.13z" fill="none"/><path stroke-linecap="round" stroke-linejoin="round" stroke="#911051" stroke-width="12.6" d="M286.95 4551.705c16.253 8.084 27.41 24.879 27.41 44.291 0 27.326-22.115 49.443-49.441 49.443-27.326 0-49.443-22.117-49.443-49.443 0-19.412 11.158-36.207 27.411-44.29" fill="none"/></g><g display="block"><path stroke-linecap="round" stroke-linejoin="round" stroke="#911051" stroke-width="12.6" d="M309.586 1089.33c0 21.61-17.518 39.129-39.128 39.129s-39.13-17.52-39.13-39.129c0-21.61 17.52-39.129 39.13-39.129 21.61 0 39.128 17.518 39.128 39.13z" fill="none"/><path stroke-linecap="round" stroke-linejoin="round" stroke="#911051" stroke-width="12.6" d="M292.489 1121.647c16.253 8.084 27.41 24.879 27.41 44.291 0 27.326-22.115 49.443-49.441 49.443-27.326 0-49.443-22.117-49.443-49.443 0-19.412 11.158-36.207 27.411-44.291" fill="none"/></g><path stroke-linecap="round" stroke-linejoin="round" stroke="#911051" stroke-width="12.6" d="M225.845 4171.913h78.149l-48.353 165.346M150.272 7599.327h78.149l-48.353 165.346M231.383 1368.007h78.15l-48.354 165.346" fill="none" display="block"/><g display="block"><path stroke-linecap="round" stroke-linejoin="round" stroke="#911051" stroke-width="12.6" d="M142.72 8017.31l.331-23.806c.62-44.422 32.024-82.446 75.528-91.454v-.001" fill="none"/><path stroke-linecap="round" stroke-linejoin="round" stroke="#911051" stroke-width="12.6" d="M142.71 8018.296c0 26.776 20.88 48.482 46.637 48.482s46.637-21.706 46.637-48.482-20.88-48.482-46.637-48.482-46.638 21.706-46.638 48.482z" fill="none"/></g><g display="block"><path stroke-linecap="round" stroke-linejoin="round" stroke="#911051" stroke-width="12.6" d="M218.292 4909.52l.332-23.805c.62-44.422 32.024-82.446 75.527-91.454v-.001" fill="none"/><path stroke-linecap="round" stroke-linejoin="round" stroke="#911051" stroke-width="12.6" d="M218.282 4910.507c0 26.776 20.881 48.482 46.638 48.482 25.757 0 46.637-21.706 46.637-48.482s-20.88-48.482-46.637-48.482-46.638 21.706-46.638 48.482z" fill="none"/></g><g display="block"><path stroke-linecap="round" stroke-linejoin="round" stroke="#911051" stroke-width="12.6" d="M223.83 1793.912l.332-23.805c.62-44.422 32.024-82.446 75.527-91.454v-.001" fill="none"/><path stroke-linecap="round" stroke-linejoin="round" stroke="#911051" stroke-width="12.6" d="M223.82 1794.899c0 26.776 20.881 48.482 46.638 48.482 25.757 0 46.637-21.706 46.637-48.482s-20.88-48.482-46.637-48.482-46.638 21.706-46.638 48.482z" fill="none"/></g><g display="block"><path stroke-linecap="round" stroke-linejoin="round" stroke="#911051" stroke-width="12.6" d="M146.333 8297.22l4.155-82.68h78.07" fill="none"/><path stroke-linecap="round" stroke-linejoin="round" stroke="#911051" stroke-width="12.6" d="M146.333 8362.662c9.014 10.136 22.161 16.532 36.782 16.532 27.208 0 49.243-22.056 49.243-49.243 0-27.208-22.035-49.243-49.243-49.243-14.62 0-27.768 6.376-36.782 16.511" fill="none"/></g><g display="block"><path stroke-linecap="round" stroke-linejoin="round" stroke="#911051" stroke-width="12.6" d="M221.906 5185.285l4.155-82.68h78.07" fill="none"/><path stroke-linecap="round" stroke-linejoin="round" stroke="#911051" stroke-width="12.6" d="M221.906 5250.728c9.014 10.136 22.16 16.532 36.782 16.532 27.208 0 49.243-22.056 49.243-49.243 0-27.208-22.035-49.243-49.243-49.243-14.621 0-27.768 6.376-36.782 16.511" fill="none"/></g><g display="block"><path stroke-linecap="round" stroke-linejoin="round" stroke="#911051" stroke-width="12.6" d="M227.444 2073.687l4.155-82.68h78.07" fill="none"/><path stroke-linecap="round" stroke-linejoin="round" stroke="#911051" stroke-width="12.6" d="M227.444 2139.13c9.014 10.136 22.161 16.532 36.782 16.532 27.208 0 49.243-22.056 49.243-49.243 0-27.208-22.035-49.243-49.243-49.243-14.621 0-27.768 6.376-36.782 16.511" fill="none"/></g><path stroke-linecap="round" stroke-linejoin="round" stroke="#911051" stroke-width="12.6" d="M242.128 8637.93H136.564l82.115-107.936v165.852M317.7 5520.196H212.138l82.115-107.936v165.852M323.239 2403.943H217.675l82.115-107.936v165.852" fill="none" display="block"/><g display="block"><path stroke-linecap="round" stroke-linejoin="round" stroke="#911051" stroke-width="12.6" d="M187.892 8919.488c27.609 0 49.999 18.945 49.999 42.199 0 23.233-22.378 42.072-49.987 42.072-21.73 0-40.22-11.669-47.104-27.965" fill="none"/><path stroke-linecap="round" stroke-linejoin="round" stroke="#911051" stroke-width="12.6" d="M145.372 8864.82c6.38-15.08 22.504-25.77 41.402-25.77 24.509 0 44.359 17.994 44.359 40.217 0 22.221-19.85 40.235-44.36 40.235M186.774 8919.502h-9.948" fill="none"/></g><g display="block"><path stroke-linecap="round" stroke-linejoin="round" stroke="#911051" stroke-width="12.6" d="M263.465 5800.698c27.609 0 49.999 18.944 49.999 42.198 0 23.234-22.378 42.073-49.987 42.073-21.73 0-40.22-11.67-47.104-27.965" fill="none"/><path stroke-linecap="round" stroke-linejoin="round" stroke="#911051" stroke-width="12.6" d="M220.945 5746.03c6.38-15.081 22.504-25.771 41.402-25.771 24.509 0 44.359 17.995 44.359 40.217 0 22.222-19.85 40.236-44.36 40.236M262.347 5800.712h-9.948" fill="none"/></g><g display="block"><path stroke-linecap="round" stroke-linejoin="round" stroke="#911051" stroke-width="12.6" d="M269.004 2695.488c27.609 0 49.999 18.944 49.999 42.198 0 23.234-22.378 42.073-49.987 42.073-21.73 0-40.22-11.669-47.104-27.965" fill="none"/><path stroke-linecap="round" stroke-linejoin="round" stroke="#911051" stroke-width="12.6" d="M226.484 2640.82c6.38-15.081 22.504-25.77 41.402-25.77 24.509 0 44.359 17.994 44.359 40.216s-19.85 40.236-44.359 40.236M267.886 2695.502h-9.948" fill="none"/></g><g display="block"><path stroke-linecap="round" stroke-linejoin="round" stroke="#911051" stroke-width="12.6" d="M137.546 509.488c27.609 0 49.999 18.944 49.999 42.198 0 23.234-22.378 42.073-49.987 42.073-21.73 0-40.22-11.67-47.104-27.965" fill="none"/><path stroke-linecap="round" stroke-linejoin="round" stroke="#911051" stroke-width="12.6" d="M95.026 454.82c6.38-15.081 22.504-25.771 41.402-25.771 24.509 0 44.359 17.995 44.359 40.217 0 22.222-19.85 40.236-44.359 40.236M136.428 509.502h-9.948" fill="none"/></g><g display="block"><path stroke-linecap="round" stroke-linejoin="round" stroke="#911051" stroke-width="12.6" d="M137.546 200.488c27.609 0 49.999 18.944 49.999 42.198 0 23.234-22.378 42.073-49.987 42.073-21.73 0-40.22-11.67-47.104-27.965" fill="none"/><path stroke-linecap="round" stroke-linejoin="round" stroke="#911051" stroke-width="12.6" d="M95.026 145.82c6.38-15.081 22.504-25.771 41.402-25.771 24.509 0 44.359 17.995 44.359 40.217 0 22.222-19.85 40.236-44.359 40.236M136.428 200.502h-9.948" fill="none"/></g><path stroke-linecap="round" stroke-linejoin="round" stroke="#911051" stroke-width="12.6" d="M238.988 9319.381h-99.284l82.369-99.087c5.313-6.943 8.492-15.626 8.492-25.06 0-22.778-18.449-41.228-41.228-41.228-22.758 0-41.208 18.45-41.208 41.228M314.561 6200.634h-99.284l82.369-99.087c5.313-6.944 8.492-15.626 8.492-25.06 0-22.779-18.449-41.228-41.228-41.228-22.758 0-41.208 18.449-41.208 41.228M182.365 3705.381H83.081l82.369-99.087c5.313-6.944 8.492-15.626 8.492-25.06 0-22.779-18.449-41.228-41.228-41.228-22.758 0-41.208 18.45-41.208 41.228M182.365 2461.381H83.081l82.369-99.087c5.313-6.944 8.492-15.626 8.492-25.06 0-22.779-18.449-41.228-41.228-41.228-22.758 0-41.208 18.45-41.208 41.228M182.365 3087.381H83.081l82.369-99.087c5.313-6.944 8.492-15.626 8.492-25.06 0-22.779-18.449-41.228-41.228-41.228-22.758 0-41.208 18.45-41.208 41.228M320.099 3087.381h-99.284l82.369-99.087c5.313-6.944 8.492-15.626 8.492-25.06 0-22.779-18.449-41.228-41.228-41.228-22.758 0-41.208 18.45-41.208 41.228M182.365 1843.38H83.081l82.369-99.086c5.313-6.944 8.492-15.626 8.492-25.06 0-22.779-18.449-41.228-41.228-41.228-22.758 0-41.208 18.45-41.208 41.228M182.365 1215.38H83.081l82.369-99.086c5.313-6.944 8.492-15.626 8.492-25.06 0-22.779-18.449-41.228-41.228-41.228-22.758 0-41.208 18.45-41.208 41.228M182.365 3395.381H83.081l82.369-99.087c5.313-6.944 8.492-15.626 8.492-25.06 0-22.779-18.449-41.228-41.228-41.228-22.758 0-41.208 18.45-41.208 41.228M182.365 2151.381H83.081l82.369-99.087c5.313-6.944 8.492-15.626 8.492-25.06 0-22.779-18.449-41.228-41.228-41.228-22.758 0-41.208 18.45-41.208 41.228M182.365 2777.381H83.081l82.369-99.087c5.313-6.944 8.492-15.626 8.492-25.06 0-22.779-18.449-41.228-41.228-41.228-22.758 0-41.208 18.45-41.208 41.228M182.365 1533.38H83.081l82.369-99.086c5.313-6.944 8.492-15.626 8.492-25.06 0-22.779-18.449-41.228-41.228-41.228-22.758 0-41.208 18.45-41.208 41.228M182.365 905.38H83.081l82.369-99.086c5.313-6.944 8.492-15.626 8.492-25.06 0-22.779-18.449-41.228-41.228-41.228-22.758 0-41.208 18.45-41.208 41.228M163.312 9518.328l52.069-52.07v165M99.129 6710.039l52.069-52.07v165M99.129 6396.328l52.069-52.07v165M99.129 6087.328l52.069-52.07v165M99.129 5772.328l52.069-52.07v165M99.129 4532.328l52.069-52.07v165M99.129 5154.328l52.069-52.07v165M99.129 3914.328l52.069-52.069v165M244.423 3284.328l52.069-52.069v165M231.129 172.118l52.069-52.07v165M99.129 5464.328l52.069-52.07v165M99.129 4224.328l52.069-52.07v165M99.129 4846.328l52.069-52.07v165M238.885 6396.328l52.069-52.07v165" fill="none" display="block"/></g></g><g mask="url(#d)" display="block"><g clip-path="url(#e)" transform="matrix(1 0 0 1 45.75 -18983.316)"><path stroke-linecap="round" stroke-linejoin="round" stroke="#911051" stroke-width="12.6" d="M261.433 6822.97h6.973c25.522 0 46.211-20.69 46.211-46.211v-72.756c0-25.522-20.689-46.213-46.211-46.213h-6.973c-25.522 0-46.212 20.691-46.212 46.213v72.756c0 25.522 20.69 46.21 46.212 46.21zM266.971 3704.59h6.973c25.522 0 46.211-20.69 46.211-46.211v-72.756c0-25.522-20.689-46.213-46.211-46.213h-6.973c-25.522 0-46.212 20.691-46.212 46.213v72.756c0 25.522 20.69 46.21 46.212 46.21zM266.971 593.759h6.973c25.522 0 46.211-20.69 46.211-46.211v-72.756c0-25.522-20.689-46.213-46.211-46.213h-6.973c-25.522 0-46.212 20.691-46.212 46.213v72.756c0 25.522 20.69 46.21 46.212 46.21z" fill="none" display="block"/><g display="block"><path stroke-linecap="round" stroke-linejoin="round" stroke="#911051" stroke-width="12.6" d="M317.259 789.662l-.333 23.894c-.623 44.588-32.143 82.756-75.81 91.797 0 0 0 0 0 0" fill="none"/><path stroke-linecap="round" stroke-linejoin="round" stroke="#911051" stroke-width="12.6" d="M317.269 788.67c0-26.876-20.958-48.663-46.812-48.663s-46.813 21.786-46.813 48.663c0 26.877 20.959 48.664 46.813 48.664 25.854 0 46.812-21.788 46.812-48.664z" fill="none"/></g><g display="block"><path stroke-linecap="round" stroke-linejoin="round" stroke="#911051" stroke-width="12.6" d="M236.148 7017.31l-.333 23.893c-.623 44.588-32.143 82.756-75.81 91.797 0 0 0 0 0 0" fill="none"/><path stroke-linecap="round" stroke-linejoin="round" stroke="#911051" stroke-width="12.6" d="M236.158 7016.317c0-26.876-20.958-48.663-46.812-48.663s-46.813 21.786-46.813 48.663c0 26.877 20.959 48.664 46.813 48.664 25.854 0 46.812-21.788 46.812-48.664z" fill="none"/></g><g display="block"><path stroke-linecap="round" stroke-linejoin="round" stroke="#911051" stroke-width="12.6" d="M311.72 3911.568l-.332 23.894c-.623 44.588-32.143 82.756-75.81 91.797 0 0 0 0 0 0" fill="none"/><path stroke-linecap="round" stroke-linejoin="round" stroke="#911051" stroke-width="12.6" d="M311.731 3910.576c0-26.876-20.958-48.663-46.812-48.663s-46.813 21.786-46.813 48.663c0 26.877 20.959 48.664 46.813 48.664 25.854 0 46.812-21.788 46.812-48.664z" fill="none"/></g><g display="block"><path stroke-linecap="round" stroke-linejoin="round" stroke="#911051" stroke-width="12.6" d="M228.474 7325.913c0 21.61-17.518 39.129-39.128 39.129s-39.13-17.52-39.13-39.129c0-21.61 17.52-39.129 39.13-39.129 21.61 0 39.128 17.518 39.128 39.13z" fill="none"/><path stroke-linecap="round" stroke-linejoin="round" stroke="#911051" stroke-width="12.6" d="M211.377 7358.23c16.253 8.084 27.41 24.879 27.41 44.291 0 27.326-22.115 49.443-49.441 49.443-27.326 0-49.443-22.117-49.443-49.443 0-19.412 11.158-36.207 27.411-44.291" fill="none"/></g><g display="block"><path stroke-linecap="round" stroke-linejoin="round" stroke="#911051" stroke-width="12.6" d="M304.047 4519.388c0 21.611-17.518 39.13-39.128 39.13s-39.13-17.52-39.13-39.13c0-21.61 17.52-39.129 39.13-39.129 21.61 0 39.128 17.518 39.128 39.13z" fill="none"/><path stroke-linecap="round" stroke-linejoin="round" stroke="#911051" stroke-width="12.6" d="M286.95 4551.705c16.253 8.084 27.41 24.879 27.41 44.291 0 27.326-22.115 49.443-49.441 49.443-27.326 0-49.443-22.117-49.443-49.443 0-19.412 11.158-36.207 27.411-44.29" fill="none"/></g><g display="block"><path stroke-linecap="round" stroke-linejoin="round" stroke="#911051" stroke-width="12.6" d="M309.586 1089.33c0 21.61-17.518 39.129-39.128 39.129s-39.13-17.52-39.13-39.129c0-21.61 17.52-39.129 39.13-39.129 21.61 0 39.128 17.518 39.128 39.13z" fill="none"/><path stroke-linecap="round" stroke-linejoin="round" stroke="#911051" stroke-width="12.6" d="M292.489 1121.647c16.253 8.084 27.41 24.879 27.41 44.291 0 27.326-22.115 49.443-49.441 49.443-27.326 0-49.443-22.117-49.443-49.443 0-19.412 11.158-36.207 27.411-44.291" fill="none"/></g><path stroke-linecap="round" stroke-linejoin="round" stroke="#911051" stroke-width="12.6" d="M225.845 4171.913h78.149l-48.353 165.346M150.272 7599.327h78.149l-48.353 165.346M231.383 1368.007h78.15l-48.354 165.346" fill="none" display="block"/><g display="block"><path stroke-linecap="round" stroke-linejoin="round" stroke="#911051" stroke-width="12.6" d="M142.72 8017.31l.331-23.806c.62-44.422 32.024-82.446 75.528-91.454v-.001" fill="none"/><path stroke-linecap="round" stroke-linejoin="round" stroke="#911051" stroke-width="12.6" d="M142.71 8018.296c0 26.776 20.88 48.482 46.637 48.482s46.637-21.706 46.637-48.482-20.88-48.482-46.637-48.482-46.638 21.706-46.638 48.482z" fill="none"/></g><g display="block"><path stroke-linecap="round" stroke-linejoin="round" stroke="#911051" stroke-width="12.6" d="M218.292 4909.52l.332-23.805c.62-44.422 32.024-82.446 75.527-91.454v-.001" fill="none"/><path stroke-linecap="round" stroke-linejoin="round" stroke="#911051" stroke-width="12.6" d="M218.282 4910.507c0 26.776 20.881 48.482 46.638 48.482 25.757 0 46.637-21.706 46.637-48.482s-20.88-48.482-46.637-48.482-46.638 21.706-46.638 48.482z" fill="none"/></g><g display="block"><path stroke-linecap="round" stroke-linejoin="round" stroke="#911051" stroke-width="12.6" d="M223.83 1793.912l.332-23.805c.62-44.422 32.024-82.446 75.527-91.454v-.001" fill="none"/><path stroke-linecap="round" stroke-linejoin="round" stroke="#911051" stroke-width="12.6" d="M223.82 1794.899c0 26.776 20.881 48.482 46.638 48.482 25.757 0 46.637-21.706 46.637-48.482s-20.88-48.482-46.637-48.482-46.638 21.706-46.638 48.482z" fill="none"/></g><g display="block"><path stroke-linecap="round" stroke-linejoin="round" stroke="#911051" stroke-width="12.6" d="M146.333 8297.22l4.155-82.68h78.07" fill="none"/><path stroke-linecap="round" stroke-linejoin="round" stroke="#911051" stroke-width="12.6" d="M146.333 8362.662c9.014 10.136 22.161 16.532 36.782 16.532 27.208 0 49.243-22.056 49.243-49.243 0-27.208-22.035-49.243-49.243-49.243-14.62 0-27.768 6.376-36.782 16.511" fill="none"/></g><g display="block"><path stroke-linecap="round" stroke-linejoin="round" stroke="#911051" stroke-width="12.6" d="M221.906 5185.285l4.155-82.68h78.07" fill="none"/><path stroke-linecap="round" stroke-linejoin="round" stroke="#911051" stroke-width="12.6" d="M221.906 5250.728c9.014 10.136 22.16 16.532 36.782 16.532 27.208 0 49.243-22.056 49.243-49.243 0-27.208-22.035-49.243-49.243-49.243-14.621 0-27.768 6.376-36.782 16.511" fill="none"/></g><g display="block"><path stroke-linecap="round" stroke-linejoin="round" stroke="#911051" stroke-width="12.6" d="M227.444 2073.687l4.155-82.68h78.07" fill="none"/><path stroke-linecap="round" stroke-linejoin="round" stroke="#911051" stroke-width="12.6" d="M227.444 2139.13c9.014 10.136 22.161 16.532 36.782 16.532 27.208 0 49.243-22.056 49.243-49.243 0-27.208-22.035-49.243-49.243-49.243-14.621 0-27.768 6.376-36.782 16.511" fill="none"/></g><path stroke-linecap="round" stroke-linejoin="round" stroke="#911051" stroke-width="12.6" d="M242.128 8637.93H136.564l82.115-107.936v165.852M317.7 5520.196H212.138l82.115-107.936v165.852M323.239 2403.943H217.675l82.115-107.936v165.852" fill="none" display="block"/><g display="block"><path stroke-linecap="round" stroke-linejoin="round" stroke="#911051" stroke-width="12.6" d="M187.892 8919.488c27.609 0 49.999 18.945 49.999 42.199 0 23.233-22.378 42.072-49.987 42.072-21.73 0-40.22-11.669-47.104-27.965" fill="none"/><path stroke-linecap="round" stroke-linejoin="round" stroke="#911051" stroke-width="12.6" d="M145.372 8864.82c6.38-15.08 22.504-25.77 41.402-25.77 24.509 0 44.359 17.994 44.359 40.217 0 22.221-19.85 40.235-44.36 40.235M186.774 8919.502h-9.948" fill="none"/></g><g display="block"><path stroke-linecap="round" stroke-linejoin="round" stroke="#911051" stroke-width="12.6" d="M263.465 5800.698c27.609 0 49.999 18.944 49.999 42.198 0 23.234-22.378 42.073-49.987 42.073-21.73 0-40.22-11.67-47.104-27.965" fill="none"/><path stroke-linecap="round" stroke-linejoin="round" stroke="#911051" stroke-width="12.6" d="M220.945 5746.03c6.38-15.081 22.504-25.771 41.402-25.771 24.509 0 44.359 17.995 44.359 40.217 0 22.222-19.85 40.236-44.36 40.236M262.347 5800.712h-9.948" fill="none"/></g><g display="block"><path stroke-linecap="round" stroke-linejoin="round" stroke="#911051" stroke-width="12.6" d="M269.004 2695.488c27.609 0 49.999 18.944 49.999 42.198 0 23.234-22.378 42.073-49.987 42.073-21.73 0-40.22-11.669-47.104-27.965" fill="none"/><path stroke-linecap="round" stroke-linejoin="round" stroke="#911051" stroke-width="12.6" d="M226.484 2640.82c6.38-15.081 22.504-25.77 41.402-25.77 24.509 0 44.359 17.994 44.359 40.216s-19.85 40.236-44.359 40.236M267.886 2695.502h-9.948" fill="none"/></g><g display="block"><path stroke-linecap="round" stroke-linejoin="round" stroke="#911051" stroke-width="12.6" d="M137.546 509.488c27.609 0 49.999 18.944 49.999 42.198 0 23.234-22.378 42.073-49.987 42.073-21.73 0-40.22-11.67-47.104-27.965" fill="none"/><path stroke-linecap="round" stroke-linejoin="round" stroke="#911051" stroke-width="12.6" d="M95.026 454.82c6.38-15.081 22.504-25.771 41.402-25.771 24.509 0 44.359 17.995 44.359 40.217 0 22.222-19.85 40.236-44.359 40.236M136.428 509.502h-9.948" fill="none"/></g><g display="block"><path stroke-linecap="round" stroke-linejoin="round" stroke="#911051" stroke-width="12.6" d="M137.546 200.488c27.609 0 49.999 18.944 49.999 42.198 0 23.234-22.378 42.073-49.987 42.073-21.73 0-40.22-11.67-47.104-27.965" fill="none"/><path stroke-linecap="round" stroke-linejoin="round" stroke="#911051" stroke-width="12.6" d="M95.026 145.82c6.38-15.081 22.504-25.771 41.402-25.771 24.509 0 44.359 17.995 44.359 40.217 0 22.222-19.85 40.236-44.359 40.236M136.428 200.502h-9.948" fill="none"/></g><path stroke-linecap="round" stroke-linejoin="round" stroke="#911051" stroke-width="12.6" d="M238.988 9319.381h-99.284l82.369-99.087c5.313-6.943 8.492-15.626 8.492-25.06 0-22.778-18.449-41.228-41.228-41.228-22.758 0-41.208 18.45-41.208 41.228M314.561 6200.634h-99.284l82.369-99.087c5.313-6.944 8.492-15.626 8.492-25.06 0-22.779-18.449-41.228-41.228-41.228-22.758 0-41.208 18.449-41.208 41.228M182.365 3705.381H83.081l82.369-99.087c5.313-6.944 8.492-15.626 8.492-25.06 0-22.779-18.449-41.228-41.228-41.228-22.758 0-41.208 18.45-41.208 41.228M182.365 2461.381H83.081l82.369-99.087c5.313-6.944 8.492-15.626 8.492-25.06 0-22.779-18.449-41.228-41.228-41.228-22.758 0-41.208 18.45-41.208 41.228M182.365 3087.381H83.081l82.369-99.087c5.313-6.944 8.492-15.626 8.492-25.06 0-22.779-18.449-41.228-41.228-41.228-22.758 0-41.208 18.45-41.208 41.228M320.099 3087.381h-99.284l82.369-99.087c5.313-6.944 8.492-15.626 8.492-25.06 0-22.779-18.449-41.228-41.228-41.228-22.758 0-41.208 18.45-41.208 41.228M182.365 1843.38H83.081l82.369-99.086c5.313-6.944 8.492-15.626 8.492-25.06 0-22.779-18.449-41.228-41.228-41.228-22.758 0-41.208 18.45-41.208 41.228M182.365 1215.38H83.081l82.369-99.086c5.313-6.944 8.492-15.626 8.492-25.06 0-22.779-18.449-41.228-41.228-41.228-22.758 0-41.208 18.45-41.208 41.228M182.365 3395.381H83.081l82.369-99.087c5.313-6.944 8.492-15.626 8.492-25.06 0-22.779-18.449-41.228-41.228-41.228-22.758 0-41.208 18.45-41.208 41.228M182.365 2151.381H83.081l82.369-99.087c5.313-6.944 8.492-15.626 8.492-25.06 0-22.779-18.449-41.228-41.228-41.228-22.758 0-41.208 18.45-41.208 41.228M182.365 2777.381H83.081l82.369-99.087c5.313-6.944 8.492-15.626 8.492-25.06 0-22.779-18.449-41.228-41.228-41.228-22.758 0-41.208 18.45-41.208 41.228M182.365 1533.38H83.081l82.369-99.086c5.313-6.944 8.492-15.626 8.492-25.06 0-22.779-18.449-41.228-41.228-41.228-22.758 0-41.208 18.45-41.208 41.228M182.365 905.38H83.081l82.369-99.086c5.313-6.944 8.492-15.626 8.492-25.06 0-22.779-18.449-41.228-41.228-41.228-22.758 0-41.208 18.45-41.208 41.228M163.312 9518.328l52.069-52.07v165M99.129 6710.039l52.069-52.07v165M99.129 6396.328l52.069-52.07v165M99.129 6087.328l52.069-52.07v165M99.129 5772.328l52.069-52.07v165M99.129 4532.328l52.069-52.07v165M99.129 5154.328l52.069-52.07v165M99.129 3914.328l52.069-52.069v165M244.423 3284.328l52.069-52.069v165M231.129 172.118l52.069-52.07v165M99.129 5464.328l52.069-52.07v165M99.129 4224.328l52.069-52.07v165M99.129 4846.328l52.069-52.07v165M238.885 6396.328l52.069-52.07v165" fill="none" display="block"/></g></g><path stroke-linecap="round" stroke-linejoin="round" stroke="#121331" stroke-width="12.397" d="M411 411H89V127.194h322V411z" fill="none" display="block"/><path stroke-linecap="round" stroke-linejoin="round" stroke="#121331" stroke-width="12.397" d="M164.898 127.195h-43.699V88.677h43.699v38.518zM378.8 127.195h-43.698V88.677h43.699v38.518zM411 174.33H89" fill="none" display="block"/></g></svg>